<svg width="604" height="515" viewBox="0 0 604 515" fill="none" xmlns="http://www.w3.org/2000/svg">
<g clip-path="url(#clip0_902_266)">
<path d="M310.999 432.535L328.6 427.349L323.464 445L328.6 462.601L310.999 457.465L293.348 462.601L298.533 445L293.348 427.349L310.999 432.535Z" fill="black" stroke="white" stroke-miterlimit="10"/>
</g>
<g clip-path="url(#clip1_902_266)">
<path d="M124.947 345.509L156.423 362.659L124.947 379.947L107.729 411.354L90.5097 379.947L59.0337 362.659L90.5097 345.509L107.729 313.964L124.947 345.509Z" fill="black" stroke="white" stroke-miterlimit="10"/>
</g>
<path d="M564.58 389.333C562.681 392.777 559.142 395.268 554.047 396.813C548.949 398.359 542.337 398.943 534.376 398.6C518.455 397.913 497.254 393.524 472.239 385.868C422.219 370.558 357.057 342.216 288.618 304.465C220.178 266.715 161.445 226.717 121.812 192.575C101.993 175.501 86.9708 159.909 77.8972 146.81C73.3598 140.259 70.3264 134.355 68.9146 129.218C67.5034 124.084 67.7231 119.762 69.6226 116.319C71.5222 112.875 75.0605 110.384 80.1559 108.839C85.2536 107.293 91.8657 106.709 99.827 107.052C115.747 107.739 136.949 112.128 161.963 119.784C211.984 135.094 277.146 163.436 345.585 201.187C414.025 238.937 472.758 278.934 512.39 313.077C532.21 330.15 547.232 345.742 556.306 358.842C560.843 365.393 563.876 371.297 565.288 376.434C566.699 381.568 566.48 385.889 564.58 389.333Z" stroke="black"/>
<path d="M544.35 426.007C542.45 429.451 538.912 431.942 533.817 433.487C528.719 435.033 522.107 435.617 514.145 435.273C498.225 434.587 477.023 430.198 452.009 422.542C401.988 407.232 336.827 378.89 268.387 341.139C199.948 303.388 141.215 263.391 101.582 229.249C81.7624 212.175 66.7403 196.583 57.6667 183.483C53.1293 176.933 50.0959 171.029 48.6841 165.892C47.2729 160.758 47.4926 156.436 49.3922 152.992C51.2918 149.549 54.83 147.057 59.9254 145.512C65.0232 143.967 71.6352 143.383 79.5965 143.726C95.517 144.413 116.719 148.802 141.733 156.458C191.753 171.767 256.915 200.11 325.355 237.86C393.794 275.611 452.527 315.608 492.16 349.75C511.979 366.824 527.002 382.416 536.075 395.516C540.613 402.067 543.646 407.971 545.058 413.107C546.469 418.241 546.249 422.563 544.35 426.007Z" stroke="black"/>
<path d="M524.121 462.681C522.222 466.125 518.683 468.616 513.588 470.161C508.49 471.707 501.878 472.291 493.917 471.948C477.996 471.261 456.795 466.872 431.78 459.216C381.76 443.906 316.598 415.564 248.159 377.813C179.719 340.063 120.986 300.066 81.3534 265.923C61.5339 248.85 46.5118 233.258 37.4382 220.158C32.9008 213.607 29.8674 207.703 28.4556 202.566C27.0444 197.432 27.2641 193.111 29.1637 189.667C31.0632 186.223 34.6015 183.732 39.6969 182.187C44.7946 180.641 51.4067 180.057 59.368 180.4C75.2885 181.087 96.4902 185.476 121.504 193.132C171.525 208.442 236.687 236.784 305.126 274.535C373.566 312.285 432.299 352.283 471.931 386.425C491.751 403.499 506.773 419.091 515.847 432.19C520.384 438.741 523.417 444.645 524.829 449.782C526.24 454.916 526.021 459.237 524.121 462.681Z" stroke="black"/>
<circle cx="131.5" cy="104.5" r="15.5" fill="#B9FF66"/>
<circle cx="421" cy="435" r="10" fill="#B9FF66"/>
<circle cx="81.5" cy="64.5" r="23.5" fill="black"/>
<path d="M308.667 383.59C302.345 385.744 295.119 381.475 292.606 374.071L253.496 259.81L276.35 252.015L315.499 366.433C318.012 373.758 314.949 381.436 308.667 383.59Z" fill="black"/>
<path d="M305.251 385C303.405 385 301.52 384.569 299.714 383.668C296.062 381.866 293.156 378.498 291.743 374.345L252.632 260.084C252.475 259.653 252.711 259.144 253.182 258.987L276.036 251.192C276.271 251.113 276.507 251.113 276.703 251.231C276.9 251.348 277.057 251.505 277.135 251.74L316.285 366.159C318.916 373.914 315.617 382.101 308.902 384.412C307.764 384.804 306.507 385 305.251 385ZM254.596 260.358L293.431 373.797C294.688 377.518 297.279 380.574 300.499 382.14C303.091 383.394 305.879 383.629 308.392 382.767C314.204 380.769 317.031 373.562 314.675 366.707L275.8 253.111L254.596 260.358Z" fill="black"/>
<path d="M272.304 153.382L198.364 205.988L169.581 235.798L158.272 255.736L158.232 255.892C155.994 259.339 157.29 267.291 161.492 275.399C165.615 283.39 171.426 288.953 175.51 289.266L175.392 289.344L197.107 291.695L237.749 285.231L324.019 254.443L431.258 272.775L432.004 272.814C405.066 267.8 368.705 231.88 342.278 181.076C315.891 130.31 307.487 80.132 319.071 55.376H319.032L272.893 152.128L272.304 153.382Z" fill="#B9FF66"/>
<path d="M449.826 270.603C476.329 256.873 471.205 194.629 438.38 131.577C405.555 68.5247 357.46 28.5412 330.957 42.2711C304.454 56.001 309.579 118.245 342.404 181.297C375.228 244.349 423.323 284.333 449.826 270.603Z" fill="white"/>
<path d="M438.17 274.185C426.625 274.185 412.725 267.761 397.764 255.266C377.384 238.266 357.397 212.06 341.494 181.428C317.423 135.05 307.488 87.4964 316.206 60.2726C319.111 51.1849 323.981 44.8392 330.617 41.4313C343.811 34.6939 362.384 40.4129 382.96 57.5698C403.34 74.57 423.327 100.775 439.23 131.407C463.34 177.786 473.275 225.339 464.518 252.563C461.612 261.651 456.743 267.996 450.107 271.404C446.534 273.284 442.529 274.185 438.17 274.185ZM342.633 40.4129C338.588 40.4129 334.818 41.2355 331.441 42.9982C325.198 46.171 320.643 52.2033 317.894 60.8601C309.295 87.6922 319.19 134.737 343.065 180.723C375.578 243.279 423.248 283.312 449.361 269.955C455.605 266.782 460.16 260.75 462.908 252.093C471.508 225.261 461.612 178.216 437.738 132.23C409.426 77.782 369.688 40.4129 342.633 40.4129Z" fill="black"/>
<path d="M438.17 274.185C426.625 274.185 412.725 267.761 397.764 255.266C377.384 238.265 357.397 212.06 341.494 181.428C317.423 135.05 307.488 87.4963 316.206 60.2725C319.111 51.1848 323.981 44.8391 330.617 41.4312C339.452 36.8874 350.997 38.0234 363.994 44.6824C376.442 51.0673 389.91 62.3877 403.026 77.3902C403.34 77.7427 403.301 78.2911 402.947 78.6045C402.594 78.9179 402.044 78.8787 401.73 78.5262C375.107 48.0511 348.169 34.4196 331.441 42.9981C325.198 46.1709 320.643 52.2033 317.894 60.86C309.295 87.6922 319.19 134.737 343.065 180.723C371.337 235.132 411.115 272.54 438.131 272.54C442.175 272.54 445.945 271.717 449.322 269.955C455.565 266.782 460.12 260.75 462.869 252.093C471.468 225.261 461.573 178.216 437.699 132.23C430.591 118.52 422.581 105.632 413.981 93.9204C413.706 93.5286 413.785 92.9803 414.178 92.7061C414.57 92.4319 415.12 92.5102 415.395 92.9019C424.073 104.692 432.083 117.658 439.269 131.446C463.34 177.785 473.275 225.339 464.518 252.563C461.612 261.65 456.743 267.996 450.107 271.404C446.534 273.284 442.529 274.185 438.17 274.185Z" fill="black"/>
<path d="M389.693 190.339C395.833 187.158 394.652 172.751 387.055 158.159C379.459 143.567 368.323 134.316 362.183 137.497C356.044 140.678 357.225 155.085 364.821 169.677C372.418 184.269 383.553 193.52 389.693 190.339Z" fill="#B9FF66"/>
<path d="M387.005 191.848C380.251 191.848 370.827 183.152 364.034 170.03C358.38 159.14 356.063 147.937 358.144 141.474C358.89 139.202 360.107 137.596 361.796 136.734C368.471 133.326 379.898 142.61 387.83 157.847C393.484 168.737 395.801 179.94 393.72 186.403C392.974 188.675 391.757 190.281 390.068 191.143C389.126 191.613 388.105 191.848 387.005 191.848ZM364.859 137.714C364.034 137.714 363.249 137.87 362.581 138.223C361.285 138.889 360.343 140.142 359.754 141.983C357.83 148.016 360.068 158.748 365.526 169.246C372.751 183.152 383.628 192.514 389.244 189.615C390.539 188.949 391.482 187.696 392.071 185.855C393.995 179.783 391.717 169.09 386.299 158.592C379.937 146.41 370.827 137.714 364.859 137.714Z" fill="#B9FF66"/>
<path d="M432.202 259.574C422.071 259.574 409.898 253.934 396.782 243.005C378.955 228.12 361.442 205.166 347.541 178.373C326.455 137.792 317.777 96.153 325.395 72.2978C327.947 64.307 332.227 58.7447 338.078 55.7285C351.507 48.8736 371.259 56.7861 392.306 77.4292C392.659 77.7818 392.659 78.291 392.306 78.6435C391.953 78.9961 391.442 78.9961 391.089 78.6435C370.591 58.5488 351.547 50.7146 338.863 57.2562C333.444 60.0373 329.478 65.2471 327.044 72.8071C319.544 96.2313 328.183 137.361 349.073 177.589C373.772 225.182 408.523 257.851 432.162 257.851C435.696 257.851 438.955 257.107 441.94 255.618C447.359 252.837 451.325 247.627 453.759 240.067C461.259 216.643 452.62 175.513 431.73 135.285C425.408 123.142 418.34 111.743 410.722 101.441C410.447 101.049 410.526 100.501 410.919 100.227C411.311 99.9526 411.861 100.031 412.136 100.423C419.832 110.842 426.94 122.28 433.301 134.501C454.388 175.082 463.066 216.721 455.448 240.576C452.895 248.567 448.615 254.13 442.764 257.146C439.544 258.752 436.01 259.574 432.202 259.574Z" fill="black"/>
<path d="M197.148 292.517C197.108 292.517 197.069 292.517 197.069 292.517L175.354 290.167C175.237 290.167 175.119 290.128 175.001 290.05C170.524 289.344 164.87 283.704 160.747 275.791C156.349 267.448 155.053 259.3 157.448 255.462L157.488 255.344L168.797 235.367C168.836 235.289 168.875 235.249 168.915 235.21L197.697 205.401C197.737 205.362 197.776 205.323 197.815 205.284L271.559 152.794L318.209 54.9845C318.326 54.7886 318.484 54.632 318.719 54.5536C318.955 54.4753 319.19 54.4753 319.387 54.5928C319.819 54.7886 320.015 55.2979 319.819 55.7288C307.999 80.994 317.345 131.211 343.026 180.645C368.746 230.157 404.597 266.821 432.202 271.874C432.634 271.953 432.948 272.344 432.908 272.814C432.869 273.245 432.476 273.559 432.044 273.598L431.298 273.559C431.259 273.559 431.22 273.559 431.181 273.559L324.138 255.266L238.064 285.976C238.025 285.976 237.946 286.015 237.907 286.015L197.265 292.478C197.226 292.517 197.187 292.517 197.148 292.517ZM175.983 288.522L197.148 290.794L237.593 284.331L323.824 253.581C323.981 253.542 324.099 253.503 324.256 253.542L420.618 269.994C394.584 258.595 364.151 224.947 341.573 181.468C319.151 138.301 309.138 94.4689 314.635 66.775L273.091 153.735C273.012 153.852 272.934 153.97 272.816 154.048L198.954 206.655L170.289 236.307L158.98 256.284C158.98 256.323 158.941 256.363 158.941 256.363C156.899 259.535 158.273 267.37 162.239 275.008C166.127 282.49 171.742 288.13 175.59 288.404C175.747 288.404 175.865 288.444 175.983 288.522Z" fill="black"/>
<path d="M272.422 153.069L319.032 55.3369H319.071C307.488 80.093 315.93 130.271 342.278 181.037C368.705 231.881 405.067 267.8 432.083 272.736L431.336 272.697L324.255 254.404L321.781 253.973C309.333 251.779 292.723 235.641 280.825 212.608C268.613 188.988 266.453 165.447 271.872 154.244L272.422 153.069Z" fill="white"/>
<path d="M432.083 273.598C432.044 273.598 432.083 273.598 432.083 273.598L431.298 273.558C431.259 273.558 431.22 273.558 431.18 273.558L324.098 255.266L321.625 254.835C308.47 252.524 291.781 235.719 280.041 213.039C266.729 187.265 266.061 164.311 271.088 153.891L271.677 152.716L318.287 55.0236C318.405 54.8277 318.562 54.671 318.797 54.5927C319.033 54.5143 319.269 54.5143 319.465 54.6319C319.897 54.8277 320.093 55.3369 319.897 55.7678C308.077 81.0331 317.423 131.25 343.104 180.684C368.824 230.196 404.675 266.86 432.28 271.913C432.712 271.992 433.026 272.383 432.987 272.853C432.869 273.245 432.515 273.598 432.083 273.598ZM314.557 66.7749L273.208 153.46L272.619 154.635C267.632 164.977 269.085 188.087 281.572 212.217C293.077 234.466 309.295 250.918 321.939 253.111L324.413 253.542L420.578 269.994C394.544 258.595 364.112 224.947 341.533 181.467C319.111 138.301 309.098 94.4687 314.557 66.7749Z" fill="black"/>
<path d="M195.969 292.4C195.93 292.4 195.891 292.4 195.891 292.4L175.315 290.206C175.197 290.206 175.079 290.167 174.961 290.089C170.485 289.384 164.83 283.743 160.707 275.831C156.348 267.448 155.053 259.3 157.448 255.462L157.487 255.344L168.796 235.367C169.032 234.936 169.542 234.819 169.974 235.054C170.406 235.289 170.524 235.798 170.288 236.229L158.979 256.284C158.979 256.323 158.94 256.363 158.94 256.363C156.898 259.535 158.273 267.37 162.239 275.008C166.126 282.49 171.741 288.13 175.589 288.404C175.707 288.404 175.864 288.444 175.943 288.522L196.048 290.676C196.519 290.716 196.872 291.146 196.794 291.616C196.755 292.047 196.401 292.4 195.969 292.4Z" fill="black"/>
<path d="M197.343 291.538C190.667 291.068 181.322 281.628 174.528 268.584C167.342 254.756 165.654 240.459 170.052 235.367L158.311 255.736L158.232 255.892C155.994 259.339 157.29 267.291 161.492 275.399C165.615 283.39 171.426 288.953 175.51 289.266L175.392 289.344L197.343 291.538Z" fill="white"/>
<path d="M197.344 292.4C197.304 292.4 197.304 292.4 197.265 292.4C197.108 292.4 196.912 292.36 196.755 292.36L175.315 290.206C175.197 290.206 175.079 290.167 174.961 290.088C170.485 289.383 164.83 283.743 160.707 275.83C156.348 267.448 155.053 259.3 157.448 255.461L157.487 255.344L167.815 237.404C168.207 236.385 168.718 235.484 169.346 234.74C169.621 234.387 170.131 234.348 170.485 234.583C170.838 234.857 170.956 235.327 170.72 235.719L169.267 238.187C166.951 244.415 169.228 256.636 175.197 268.074C181.676 280.57 190.511 289.697 196.833 290.519L197.304 290.559C197.775 290.598 198.129 291.029 198.09 291.499C198.129 292.047 197.775 292.4 197.344 292.4ZM175.943 288.522L190.943 290.049C185.171 286.367 178.809 278.768 173.744 268.975C168.835 259.535 166.401 249.742 166.794 242.692L158.979 256.284C158.979 256.323 158.94 256.362 158.94 256.362C156.898 259.535 158.273 267.369 162.239 275.008C166.126 282.489 171.741 288.13 175.589 288.404C175.707 288.404 175.864 288.443 175.943 288.522Z" fill="black"/>
<path d="M236.295 285.388L238.022 285.035C228.677 286.994 213.912 272.892 203.507 252.876C192.865 232.429 190.863 212.021 198.402 205.988L197.42 206.968L170.129 235.249C165.653 240.263 167.302 254.639 174.527 268.544C181.478 281.941 191.334 291.499 198.048 291.459L236.295 285.388Z" fill="black"/>
<path d="M198.011 292.36C190.864 292.36 180.929 282.764 173.743 268.975C166.44 254.874 164.594 240.146 169.463 234.701L196.244 206.968C196.715 206.341 197.264 205.793 197.853 205.323C198.207 205.048 198.717 205.088 199.032 205.401C199.346 205.753 199.346 206.263 199.032 206.576L197.5 208.182C192.042 215.468 194.751 234.113 204.293 252.484C214.581 272.305 228.953 285.897 237.749 284.252L237.867 284.213C238.338 284.135 238.77 284.409 238.888 284.879C238.966 285.349 238.691 285.78 238.22 285.897C238.181 285.897 238.142 285.897 238.102 285.936L236.492 286.25H236.453L198.207 292.321C198.128 292.321 198.05 292.36 198.011 292.36ZM193.966 211.825L170.759 235.876C166.44 240.733 168.403 254.913 175.314 268.192C182.068 281.197 191.61 290.598 198.011 290.637L231.78 285.27C222.67 282.058 211.44 269.955 202.762 253.307C194.516 237.443 191.335 221.304 193.966 211.825Z" fill="black"/>
<path d="M362.188 137.479C356.023 140.612 356.926 155.145 364.78 169.638C377.934 193.885 388.418 191.025 389.636 190.594C389.675 190.594 389.675 190.634 389.636 190.634L367.057 208.77C360.421 199.486 354.099 189.145 348.287 177.981C342.751 167.288 338.078 156.633 334.387 146.292L362.188 137.479Z" fill="black"/>
<path d="M367.057 209.631C367.018 209.631 366.979 209.631 366.94 209.631C366.704 209.592 366.508 209.475 366.351 209.279C359.557 199.76 353.235 189.341 347.541 178.412C342.083 167.914 337.371 157.221 333.602 146.645C333.523 146.41 333.523 146.174 333.641 145.979C333.759 145.783 333.916 145.626 334.151 145.548L361.953 136.734C362.385 136.617 362.856 136.813 363.013 137.243C363.17 137.674 363.013 138.144 362.62 138.34C361.285 139.006 360.303 140.338 359.714 142.297C357.79 148.446 360.146 159.336 365.604 169.325C378.445 192.984 388.34 190.281 389.4 189.889C389.793 189.733 390.264 189.928 390.461 190.281C390.657 190.634 390.578 191.143 390.264 191.417L367.607 209.436C367.45 209.553 367.254 209.631 367.057 209.631ZM335.526 146.84C339.256 157.064 343.811 167.405 349.073 177.59C354.57 188.166 360.696 198.233 367.254 207.516L386.848 191.77C382.372 191.574 373.929 188.244 364.034 170.03C358.301 159.493 355.945 148.368 358.026 141.67C358.301 140.808 358.615 140.064 359.008 139.359L335.526 146.84Z" fill="black"/>
<path d="M478.364 81.5974C496.316 72.1937 503.259 50.1159 493.872 32.2852C484.486 14.4545 462.324 7.62311 444.373 17.0268C426.422 26.4305 419.478 48.5083 428.865 66.339C438.251 84.1697 460.413 91.0011 478.364 81.5974Z" fill="black"/>
<path d="M444.65 41.2352C446.377 38.8849 448.93 37.4356 451.836 37.1223C454.034 36.8872 456.076 37.3573 458 38.5324C458.982 39.12 459.846 39.8642 460.671 40.7652C461.26 39.7075 461.966 38.7674 462.791 37.984C464.401 36.4172 466.325 35.5162 468.485 35.2812C471.391 34.9678 474.218 35.8296 476.417 37.749C478.577 39.6292 479.951 42.3712 480.304 45.4657C480.658 48.6385 479.794 51.6939 477.595 55.0626C475.631 58.0787 472.647 61.2124 469.192 64.8945C468.014 66.1479 466.679 67.5581 465.304 69.0466C464.951 69.4383 464.44 69.7125 463.891 69.7517C463.341 69.83 462.83 69.6733 462.359 69.36C460.671 68.1848 459.061 67.0881 457.647 66.1479C453.485 63.3276 449.872 60.899 447.281 58.3921C444.375 55.611 442.883 52.7906 442.529 49.6178C442.215 46.5233 442.961 43.5463 444.65 41.2352Z" fill="white"/>
<path d="M580.204 83.5925C593.346 70.4829 593.346 49.2281 580.204 36.1185C567.063 23.0089 545.756 23.0089 532.614 36.1185C519.472 49.228 519.472 70.4829 532.614 83.5925C545.756 96.7021 567.063 96.7021 580.204 83.5925Z" fill="#B9FF66"/>
<path d="M556.403 94.2732C537.397 94.2732 521.887 78.8399 521.887 59.8419C521.887 40.8832 537.358 25.4106 556.403 25.4106C575.447 25.4106 590.919 40.844 590.919 59.8419C590.919 78.8007 575.447 94.2732 556.403 94.2732ZM556.403 27.1342C538.34 27.1342 523.614 41.7841 523.614 59.8419C523.614 77.8606 538.3 92.5497 556.403 92.5497C574.466 92.5497 589.191 77.8998 589.191 59.8419C589.191 41.8233 574.505 27.1342 556.403 27.1342Z" fill="#B9FF66"/>
<path d="M565.512 63.1713C563.627 63.1713 561.978 64.0723 560.878 65.4824L549.53 61.0561C549.53 60.8994 549.569 60.7819 549.569 60.6252C549.569 60.351 549.53 60.0768 549.491 59.8026L561.114 54.4362C562.174 55.6505 563.745 56.4339 565.512 56.4731C568.732 56.4731 571.402 53.8486 571.402 50.5974C571.402 47.3462 568.771 44.6826 565.512 44.6826C562.292 44.6826 559.622 47.3071 559.622 50.5583C559.622 50.8325 559.661 51.1067 559.7 51.3809L548.077 56.7473C547.017 55.533 545.446 54.7496 543.679 54.7104C540.459 54.7104 537.789 57.3348 537.789 60.586C537.789 63.8372 540.42 66.5009 543.679 66.5009C545.564 66.5009 547.213 65.5999 548.313 64.1898L559.661 68.6161C559.661 68.7728 559.622 68.8903 559.622 69.047C559.622 72.2982 562.253 74.9618 565.512 74.9618C568.732 74.9618 571.402 72.3373 571.402 69.0861C571.363 65.8349 568.732 63.2105 565.512 63.1713Z" fill="black"/>
<path d="M565.957 189.993C581.368 179.322 585.24 158.283 574.605 142.999C563.97 127.715 542.857 123.975 527.446 134.645C512.036 145.315 508.164 166.355 518.799 181.639C529.433 196.923 550.547 200.663 565.957 189.993Z" fill="black"/>
<path d="M538.222 178.373L533.275 151.619C533.039 150.248 534.296 149.112 535.631 149.465L564.885 157.73C566.377 158.161 566.73 160.08 565.513 161.02L541.167 179.509C540.107 180.371 538.497 179.783 538.222 178.373Z" fill="white"/>
<path d="M546.37 299.582C565.4 290.34 573.363 267.553 564.156 248.686C554.948 229.819 532.057 222.016 513.026 231.258C493.996 240.499 486.033 263.286 495.24 282.153C504.448 301.02 527.339 308.823 546.37 299.582Z" fill="#B9FF66"/>
<path d="M529.505 304.347C525.421 304.347 521.258 303.72 517.214 302.349C507.319 299.059 499.308 292.165 494.674 282.842C490.041 273.559 489.334 263.022 492.672 253.151C499.583 232.821 521.808 221.735 542.266 228.512C552.162 231.802 560.172 238.696 564.806 248.019C569.439 257.303 570.146 267.84 566.808 277.711C561.232 294.006 545.879 304.347 529.505 304.347ZM529.897 228.277C514.23 228.277 499.544 238.148 494.243 253.738C491.062 263.178 491.729 273.245 496.167 282.098C500.604 290.99 508.261 297.61 517.724 300.743C537.279 307.206 558.523 296.63 565.12 277.202C568.301 267.761 567.633 257.694 563.196 248.842C558.759 239.95 551.102 233.33 541.638 230.196C537.751 228.865 533.785 228.277 529.897 228.277Z" fill="black"/>
<path d="M549.218 259.261C548.825 268.78 532.686 291.029 528.838 296.239C528.445 296.787 527.621 296.748 527.267 296.16C524.833 292.243 516.783 279.082 512.581 268.427C510.893 264.197 509.833 260.358 509.95 257.655C510.382 246.844 519.532 238.422 530.369 238.853C541.207 239.362 549.65 248.45 549.218 259.261Z" fill="black"/>
<path d="M535.935 264.827C539.446 261.324 539.446 255.644 535.935 252.141C532.423 248.638 526.729 248.638 523.218 252.141C519.706 255.644 519.706 261.324 523.218 264.827C526.729 268.33 532.423 268.33 535.935 264.827Z" fill="#B9FF66"/>
<defs>
<clipPath id="clip0_902_266">
<rect width="36" height="36" fill="white" transform="translate(293 427)"/>
</clipPath>
<clipPath id="clip1_902_266">
<rect width="70.3259" height="70.3259" fill="white" transform="translate(107.729 313) rotate(45)"/>
</clipPath>
</defs>
</svg>
